<svg version="1.1" id="Layer_1" xmlns="http://www.w3.org/2000/svg" xmlns:xlink="http://www.w3.org/1999/xlink" x="0px" y="0px"
	 width="100%" viewBox="0 0 573 574" enable-background="new 0 0 573 574" xml:space="preserve">
<path fill="none" opacity="1.000000" stroke="#000000" stroke-linecap="round" stroke-linejoin="round" stroke-width="3.000000"
	d="
M471.000000,340.500000 
	C473.273773,336.578583 470.302979,333.546448 468.866852,330.564117 
	C466.721802,326.109558 464.013733,322.248688 462.580627,317.117126 
	C460.139618,308.376709 453.034027,302.537048 443.988342,300.042267 
	C433.589050,297.174164 423.728485,300.156860 414.006226,303.517975 
	C399.349152,308.585114 385.777863,316.046082 372.059143,323.114777 
	C366.877777,325.784485 361.510864,327.575134 355.977264,328.905426 
	C351.943085,329.875275 347.341644,328.029266 344.919647,322.032440 
	C342.301666,315.550354 341.585388,308.762939 341.079620,301.994049 
	C339.550262,281.526398 340.317200,260.999420 339.924011,240.501465 
	C339.486725,217.704269 335.242767,195.817535 323.040375,175.975159 
	C310.700531,155.909225 301.766144,134.382690 295.918152,111.520935 
	C293.339355,101.439445 291.560333,91.268471 289.883148,81.019119 
	C287.777222,68.149467 285.627747,55.160137 278.005981,43.995914 
	C275.843048,40.827721 274.013062,36.944340 269.502869,37.089401 
	C264.439819,37.252247 265.807617,42.188168 264.573639,45.031956 
	C259.884430,55.838673 257.456635,67.089241 257.923981,79.002983 
	C258.348877,89.834290 260.074127,100.241333 264.985352,110.007362 
	C267.898682,115.800468 271.815765,121.408493 273.199524,127.567497 
	C274.809845,134.734787 278.917603,140.283478 282.051025,146.474167 
	C283.109406,148.565170 284.761200,150.355820 286.245422,152.428375 
	C289.124573,147.583862 282.896210,135.386673 274.500000,128.500000 
"/>
<path fill="none" opacity="1.000000" stroke="#000000" stroke-linecap="round" stroke-linejoin="round" stroke-width="3.000000"
	d="
M470.000000,350.500000 
	C470.351501,347.000000 473.488892,343.518219 470.004578,339.995483 
	C465.442566,335.383118 459.577026,333.064758 453.532654,334.177368 
	C438.754883,336.897705 431.364502,347.404388 426.902771,360.968018 
	C423.034332,372.728027 419.381592,384.585052 414.510254,396.004364 
	C402.710175,423.666046 382.326141,441.316132 353.540924,450.133545 
	C330.276245,457.259857 307.057831,464.823700 286.013794,477.522827 
	C272.767487,485.516357 262.197479,495.953094 255.932846,510.471039 
	C251.846542,519.940796 246.821518,528.938110 238.995346,535.994812 
	C238.029327,536.865845 237.102188,537.860413 235.975983,538.454407 
	C234.303284,539.336731 232.620728,541.113953 230.515610,539.479919 
	C228.518265,537.929504 228.523529,535.458252 229.104568,533.531555 
	C230.441391,529.098755 232.702103,524.930298 233.876007,520.467407 
	C234.720276,517.257690 237.205032,514.164062 235.154770,509.860199 
	C229.006866,515.751221 224.614029,522.708618 219.985703,529.490234 
	C214.681396,537.262268 208.637070,544.433655 200.945267,549.923340 
	C197.362518,552.480347 193.428284,555.053406 188.325592,553.657776 
	C186.346283,545.815369 193.079086,541.252991 194.878876,534.848572 
	C193.833328,533.541687 192.949997,534.001770 191.452988,534.923645 
	C183.140274,540.042419 175.656387,546.392700 167.032715,551.060425 
	C162.896118,553.299438 158.760712,555.095703 154.000229,554.989990 
	C148.646637,554.871277 146.574066,551.135498 148.962921,546.480957 
	C152.117661,540.334167 157.106033,536.319397 162.960068,532.931030 
	C168.150543,529.926758 172.999985,526.333313 177.999985,523.000000 
"/>
<path fill="none" opacity="1.000000" stroke="#000000" stroke-linecap="round" stroke-linejoin="round" stroke-width="3.000000"
	d="
M321.500000,367.000000 
	C314.102234,370.626007 307.973785,375.790924 301.858673,381.344360 
	C288.473816,393.499878 273.563782,403.749908 258.002960,413.004974 
	C239.650467,423.920532 220.263229,432.396362 199.486343,437.443817 
	C191.465851,439.392273 183.338928,440.850616 175.001434,441.057678 
	C164.533630,441.317657 154.323349,443.361816 144.521423,447.056824 
	C140.534714,448.559692 136.957809,450.897797 135.059235,454.779755 
	C137.168365,461.690765 143.023590,461.039948 147.995987,460.877350 
	C159.181137,460.511536 170.424957,460.561005 181.500000,458.500000 
"/>
<path fill="none" opacity="1.000000" stroke="#000000" stroke-linecap="round" stroke-linejoin="round" stroke-width="3.000000"
	d="
M183.000000,290.000000 
	C179.825150,292.186829 175.906509,292.285339 172.420105,293.818298 
	C164.943512,297.105774 162.951309,304.182068 171.470642,309.546600 
	C177.818604,313.543854 184.930801,315.117737 191.985504,317.052856 
	C194.816971,317.829559 197.544678,318.071716 200.496597,318.142395 
	C211.163040,318.397675 221.809448,319.401733 232.500381,319.010376 
	C234.876419,318.923370 237.287933,319.182159 239.500000,318.000000 
"/>
<path fill="none" opacity="1.000000" stroke="#000000" stroke-linecap="round" stroke-linejoin="round" stroke-width="3.000000"
	d="
M258.500000,93.500000 
	C255.608795,93.384773 255.508499,90.577942 254.602768,88.943062 
	C248.978561,78.791153 242.544907,69.202736 235.510941,59.991646 
	C232.925522,56.605995 230.040009,53.629574 226.070526,51.797382 
	C223.661819,52.607880 223.177795,54.268421 222.943649,56.494072 
	C221.912720,66.293724 224.462189,75.600548 226.474091,85.005547 
	C227.726349,90.859451 229.592804,96.558067 230.882172,102.415878 
	C232.105469,107.973618 236.185684,113.049141 239.557632,117.960426 
	C250.647552,134.113022 263.104126,149.163223 277.000000,163.000000 
"/>
<path fill="none" opacity="1.000000" stroke="#000000" stroke-linecap="round" stroke-linejoin="round" stroke-width="3.000000"
	d="
M304.000000,378.000000 
	C300.042786,377.384125 297.190338,380.091919 294.038757,381.582001 
	C280.020905,388.209808 266.516937,395.949829 251.979034,401.444519 
	C243.065811,404.813354 233.919647,406.838776 224.472183,403.069733 
	C223.732819,402.774750 223.080032,402.547638 222.484543,402.017365 
	C222.043900,401.625031 221.461334,401.392059 220.783005,400.995026 
	C222.458405,396.997101 226.630829,396.289825 229.500000,394.000000 
"/>
<path fill="none" opacity="1.000000" stroke="#000000" stroke-linecap="round" stroke-linejoin="round" stroke-width="3.000000"
	d="
M230.000000,102.500000 
	C223.130142,95.878365 218.078751,87.766037 211.960556,80.533363 
	C208.386963,76.308777 205.012634,71.870956 200.533478,68.456093 
	C198.951614,67.250107 197.230759,66.452545 195.534790,67.092232 
	C193.348053,67.917023 194.083511,70.211884 194.002228,72.000099 
	C193.489136,83.288254 197.942612,93.503403 201.102463,103.969063 
	C201.857529,106.469833 203.227966,108.761429 203.000000,111.500000 
"/>
<path fill="none" opacity="1.000000" stroke="#000000" stroke-linecap="round" stroke-linejoin="round" stroke-width="3.000000"
	d="
M188.500000,463.500000 
	C176.386307,468.825592 163.673203,472.387726 150.967636,475.882355 
	C147.008774,476.971222 142.667587,476.678558 138.499802,476.997467 
	C130.816284,477.585419 123.506653,480.037140 116.021820,481.604218 
	C115.091080,481.799103 113.533592,481.567169 113.198883,483.503876 
	C113.215744,485.109406 114.915413,485.403351 116.489670,486.026093 
	C124.843414,489.330780 133.431137,489.259033 141.985764,487.433289 
	C150.401230,485.637268 158.917099,484.129883 167.000000,481.000000 
"/>
<path fill="none" opacity="1.000000" stroke="#000000" stroke-linecap="round" stroke-linejoin="round" stroke-width="3.000000"
	d="
M212.500000,198.500000 
	C208.008102,193.415848 201.557327,191.365891 195.920242,188.139343 
	C191.457535,185.584976 186.554749,183.722336 180.996613,183.882217 
	C175.309937,184.045822 173.497559,178.698929 171.102676,174.934677 
	C166.398865,167.541275 164.208862,159.150146 162.976669,150.503326 
	C162.577957,147.705368 163.372421,145.006149 164.147430,142.546448 
	C165.416779,138.517883 170.499664,136.992645 175.004227,138.487274 
	C184.154068,141.523209 190.943375,147.794662 197.522202,154.478149 
	C211.604431,168.784424 228.100876,179.535156 246.471741,187.564651 
	C251.053101,189.567047 255.634476,191.390106 260.500000,192.500000 
"/>
<path fill="none" opacity="1.000000" stroke="#000000" stroke-linecap="round" stroke-linejoin="round" stroke-width="3.000000"
	d="
M194.000000,319.000000 
	C189.843063,321.125305 185.146805,321.758850 180.946991,323.895813 
	C178.437775,325.172577 176.176468,326.345093 174.914413,329.155823 
	C177.802261,334.176758 183.135025,334.860107 188.015167,335.930908 
	C199.853134,338.528381 211.888901,339.370514 223.999695,338.990173 
	C231.665253,338.749451 239.349808,339.570953 247.007248,338.554657 
	C247.618912,338.473450 248.340195,339.155334 248.975403,339.540558 
	C249.001343,339.556274 248.666672,340.166656 248.500000,340.500000 
"/>
<path fill="none" opacity="1.000000" stroke="#000000" stroke-linecap="round" stroke-linejoin="round" stroke-width="3.000000"
	d="
M249.500000,164.500000 
	C248.500000,164.333328 247.245789,164.496658 246.537643,163.951126 
	C233.151825,153.639175 219.316177,143.709808 211.544189,127.978165 
	C209.295792,123.427078 208.466476,118.348022 204.599686,114.402313 
	C198.904282,108.590652 193.165588,102.944000 185.983994,99.029366 
	C180.854141,96.233131 177.170914,98.613113 176.984756,104.499519 
	C176.577850,117.365135 180.494888,129.122528 185.959412,140.519470 
	C186.287064,141.202789 187.235321,142.166672 186.000000,143.000000 
"/>
<path fill="none" opacity="1.000000" stroke="#000000" stroke-linecap="round" stroke-linejoin="round" stroke-width="3.000000"
	d="
M247.500000,341.000000 
	C240.362213,343.527069 232.906509,344.749115 225.488739,345.929169 
	C213.363770,347.857971 201.154602,349.253326 189.012527,351.083069 
	C187.111084,351.369598 184.814697,351.525665 183.051987,354.172913 
	C188.478622,358.241119 194.472473,361.015930 200.975113,363.078461 
	C205.585571,364.540771 210.619293,363.065308 215.000000,365.500000 
"/>
<path fill="none" opacity="1.000000" stroke="#000000" stroke-linecap="round" stroke-linejoin="round" stroke-width="3.000000"
	d="
M180.000000,264.500000 
	C175.267776,265.977356 170.291260,264.168579 165.457581,265.880188 
	C161.536285,267.268738 161.369705,266.798309 157.913162,270.595398 
	C158.715851,274.758026 161.719788,277.407776 165.039352,279.435577 
	C173.269455,284.463013 181.831589,288.286560 191.395447,290.884857 
	C205.201263,294.635559 218.783783,293.954712 232.482178,292.790283 
	C237.631287,292.352570 243.320892,292.825897 248.000000,289.500000 
"/>
<path fill="none" opacity="1.000000" stroke="#000000" stroke-linecap="round" stroke-linejoin="round" stroke-width="3.000000"
	d="
M175.500000,183.000000 
	C174.018112,184.718933 171.284134,183.978500 169.883148,186.433319 
	C167.854706,189.987656 167.628601,193.723953 171.045120,197.963638 
	C177.839127,206.394531 185.662247,212.998810 196.407425,216.764206 
	C210.848282,221.824615 225.320557,226.128586 240.500000,228.000000 
"/>
<path fill="none" opacity="1.000000" stroke="#000000" stroke-linecap="round" stroke-linejoin="round" stroke-width="3.000000"
	d="
M189.500000,267.000000 
	C194.810364,271.149353 201.340225,271.541656 207.508148,271.818024 
	C216.142471,272.204834 224.926544,272.996155 233.483627,270.932129 
	C237.135468,270.051300 240.779678,269.371582 244.500000,269.000000 
"/>
<path fill="none" opacity="1.000000" stroke="#000000" stroke-linecap="round" stroke-linejoin="round" stroke-width="3.000000"
	d="
M255.500000,289.000000 
	C246.166672,288.961731 236.961594,287.323181 227.461349,288.741058 
	C219.146561,289.981995 210.500000,288.995422 202.000000,289.002808 
	C199.458252,289.005005 196.883759,288.794861 194.500000,290.000000 
"/>
<path fill="none" opacity="1.000000" stroke="#000000" stroke-linecap="round" stroke-linejoin="round" stroke-width="3.000000"
	d="
M151.000000,519.000000 
	C140.611893,526.878174 131.678604,536.320129 122.478531,545.478455 
	C121.644951,546.308289 122.299637,547.193237 121.700371,548.367798 
	C127.830063,550.345703 132.747498,546.786194 137.992218,545.469055 
	C142.876678,544.242310 146.815872,540.516174 152.000000,540.000000 
"/>
<path fill="none" opacity="1.000000" stroke="#000000" stroke-linecap="round" stroke-linejoin="round" stroke-width="3.000000"
	d="
M264.500000,353.999969 
	C257.000000,355.999969 249.527084,358.109680 241.992599,359.970001 
	C234.025620,361.937103 225.767288,363.004517 218.073288,365.708557 
	C211.866241,367.890045 205.561539,370.710754 200.271942,376.199127 
	C205.057709,381.544250 211.645325,379.728760 217.000000,381.500000 
"/>
<path fill="none" opacity="1.000000" stroke="#000000" stroke-linecap="round" stroke-linejoin="round" stroke-width="3.000000"
	d="
M266.500000,364.500000 
	C253.000000,369.500000 239.614059,374.848938 225.940613,379.318298 
	C220.881226,380.972015 216.243546,382.876678 211.961014,385.945587 
	C210.781845,386.790619 209.902359,387.397949 209.967484,389.001312 
	C210.052200,391.087250 212.003128,391.301300 213.009125,391.374542 
	C216.662613,391.640320 220.027695,394.283661 224.087509,392.167938 
	C225.723129,391.315552 228.334320,392.322449 230.498184,392.519867 
	C230.678558,392.536316 230.833344,392.833313 231.000000,393.000000 
	C230.833328,393.166656 230.666656,393.333344 230.500000,393.500000 
"/>
<path fill="none" opacity="1.000000" stroke="#000000" stroke-linecap="round" stroke-linejoin="round" stroke-width="3.000000"
	d="
M121.500000,521.000000 
	C117.482925,524.995911 112.136024,527.522522 108.947731,532.466309 
	C108.405731,533.306763 107.799042,533.952942 108.118385,535.379761 
	C114.797287,537.692749 120.935196,535.143799 126.982735,532.461060 
	C130.246490,531.013245 133.309952,529.119629 136.513229,527.526672 
	C137.568771,527.001709 138.631714,525.755371 140.000000,527.000000 
"/>
<path fill="none" opacity="1.000000" stroke="#000000" stroke-linecap="round" stroke-linejoin="round" stroke-width="3.000000"
	d="
M278.500000,374.000000 
	C267.666656,378.333344 256.850494,382.710266 245.992310,386.980438 
	C241.037598,388.928925 236.000000,390.666687 231.000000,392.500031 
"/>
<path fill="none" opacity="1.000000" stroke="#000000" stroke-linecap="round" stroke-linejoin="round" stroke-width="3.000000"
	d="
M235.500000,269.000000 
	C230.152176,266.826080 224.483582,268.122375 218.986420,267.662262 
	C209.364655,266.856964 199.751099,265.119263 189.988312,266.411743 
	C186.873688,266.824097 183.451614,265.738983 181.091019,263.884155 
	C175.330246,259.357635 169.535248,254.682495 166.016708,247.991211 
	C162.610947,241.514435 164.849442,236.935028 172.000961,235.504807 
	C173.827881,235.139435 175.666672,234.833344 177.500000,234.500000 
"/>
<path fill="none" opacity="1.000000" stroke="#000000" stroke-linecap="round" stroke-linejoin="round" stroke-width="3.000000"
	d="
M265.500000,176.000000 
	C259.506836,172.282028 253.385895,169.046326 249.298233,162.628510 
	C246.331421,157.970459 241.392792,154.600677 237.522293,150.479065 
	C229.448608,141.881592 221.517502,133.150330 213.472717,124.525444 
	C212.675308,123.670525 212.109711,122.252090 210.500000,122.500000 
"/>
<path fill="none" opacity="1.000000" stroke="#000000" stroke-linecap="round" stroke-linejoin="round" stroke-width="3.000000"
	d="
M250.500000,317.000000 
	C239.317413,317.200134 228.282913,312.822266 216.992203,315.972076 
	C214.403320,316.694336 211.442200,314.870941 209.000000,317.000000 
"/>
<path fill="none" opacity="1.000000" stroke="#000000" stroke-linecap="round" stroke-linejoin="round" stroke-width="3.000000"
	d="
M162.500000,497.500000 
	C150.242386,500.516876 137.957458,503.411682 125.498367,505.490204 
	C120.933640,506.251770 116.837227,504.607941 113.035805,502.437286 
	C110.156242,500.793091 110.340370,498.763763 112.990837,496.489319 
	C117.058754,492.998566 122.511749,492.550964 127.000000,490.000000 
"/>
<path fill="none" opacity="1.000000" stroke="#000000" stroke-linecap="round" stroke-linejoin="round" stroke-width="3.000000"
	d="
M180.500000,184.500000 
	C181.230270,187.348175 184.039597,187.771378 186.041412,188.928360 
	C192.982620,192.940231 200.318115,196.611786 208.048920,198.272263 
	C218.681793,200.556061 228.447800,206.007599 239.500000,206.500000 
"/>
<path fill="none" opacity="1.000000" stroke="#000000" stroke-linecap="round" stroke-linejoin="round" stroke-width="3.000000"
	d="
M183.500000,211.500000 
	C180.250168,211.956802 177.169083,210.792313 173.997482,210.530533 
	C172.011017,210.366577 169.947800,210.209671 168.010437,210.558044 
	C163.420486,211.383392 162.102890,213.859558 164.568802,217.958618 
	C169.945908,226.896988 176.223938,234.692093 186.920166,238.240631 
	C191.608627,239.796051 195.991058,242.519638 200.997162,243.514313 
	C203.846222,244.080368 206.806961,243.336594 209.473404,243.696823 
	C217.138062,244.732285 224.771271,245.975784 232.500000,246.500000 
"/>
<path fill="none" opacity="1.000000" stroke="#000000" stroke-linecap="round" stroke-linejoin="round" stroke-width="3.000000"
	d="
M146.500000,511.000000 
	C139.264542,514.239258 132.235672,517.987488 124.498970,519.996033 
	C119.604797,521.266602 112.866051,518.927002 109.867416,514.818359 
	C111.847527,510.164459 117.031685,509.708252 120.500000,507.000000 
"/>
<path fill="none" opacity="1.000000" stroke="#000000" stroke-linecap="round" stroke-linejoin="round" stroke-width="3.000000"
	d="
M138.500000,461.000000 
	C136.166672,462.000000 133.683868,462.752228 131.530762,464.050995 
	C126.898720,466.845093 126.681656,470.087585 130.480209,474.019135 
	C131.465179,475.038605 133.193542,475.306458 133.500000,477.000000 
"/>
<path fill="none" opacity="1.000000" stroke="#000000" stroke-linecap="round" stroke-linejoin="round" stroke-width="3.000000"
	d="
M459.000000,312.000000 
	C456.000000,312.000000 452.993469,311.875397 450.001678,312.032043 
	C446.388092,312.221283 443.137390,313.126740 442.500000,317.500000 
"/>
<path fill="none" opacity="1.000000" stroke="#000000" stroke-linecap="round" stroke-linejoin="round" stroke-width="3.000000"
	d="
M207.500000,242.000000 
	C201.611252,240.261169 195.871033,237.758469 189.500000,238.500000 
"/>
</svg>