<svg version="1.1" id="Layer_1" xmlns="http://www.w3.org/2000/svg" xmlns:xlink="http://www.w3.org/1999/xlink" x="0px" y="0px"
	 width="100%" viewBox="0 0 736 570" enable-background="new 0 0 736 570" xml:space="preserve">
<path fill="none" opacity="1.000000" stroke="#000000" stroke-linecap="round" stroke-linejoin="round" stroke-width="10.000000"
	d="
M88.000000,173.500000 
	C86.789177,179.777222 87.219467,186.208649 86.854103,192.520493 
	C86.536667,198.004288 87.118484,204.052368 88.672386,209.450378 
	C91.515984,219.328461 91.936134,229.538361 93.872330,239.524750 
	C95.204506,246.395721 95.147369,253.524216 96.054596,260.492889 
	C96.888756,266.900330 105.058304,274.530426 113.999489,270.998718 
	C126.232178,266.166870 138.360535,260.996063 149.422501,253.879547 
	C156.993896,249.008652 163.763321,242.905563 171.019440,237.526215 
	C178.459366,232.010605 185.045959,225.578247 191.473663,218.974365 
	C194.866028,215.489029 199.555695,214.432755 203.520706,212.034225 
	C206.622162,210.158081 208.639923,208.220886 208.665573,204.001007 
	C208.701477,198.093079 210.977493,192.738739 216.000000,189.000000 
"/>
<path fill="none" opacity="1.000000" stroke="#000000" stroke-linecap="round" stroke-linejoin="round" stroke-width="11.000000"
	d="
M382.500000,88.500000 
	C386.593262,96.614143 388.592041,105.471436 391.416443,114.027580 
	C392.565308,117.507805 392.827545,121.258141 393.161804,124.985489 
	C393.602020,129.894333 393.958923,134.782364 396.222046,139.629776 
	C398.351624,144.191269 397.830292,149.914795 399.058472,154.985840 
	C404.254608,176.439728 402.487549,198.285248 402.931183,220.001404 
	C402.992249,222.990051 403.088959,226.057724 404.614624,228.426178 
	C406.943207,232.041138 406.324310,235.208267 404.480194,238.488861 
	C402.436615,242.124283 400.648010,245.696060 399.816711,249.964294 
	C398.858215,254.885513 395.537628,258.979248 392.494873,262.996124 
	C390.732208,265.323059 390.682953,267.705353 391.412872,270.522583 
	C392.426025,274.432800 392.833313,278.500000 393.499969,282.500000 
"/>
<path fill="none" opacity="1.000000" stroke="#000000" stroke-linecap="round" stroke-linejoin="round" stroke-width="10.000000"
	d="
M356.000000,158.000000 
	C353.253082,149.755661 349.022797,142.050125 346.283844,133.904556 
	C343.669708,126.130165 340.592560,118.471863 338.327545,110.549301 
	C337.731232,108.463570 338.914734,107.655113 339.578491,107.092621 
	C344.480621,102.938370 349.889221,99.632530 356.501953,99.021210 
	C358.477356,98.838600 360.058502,98.909843 361.174988,101.422234 
	C362.072266,103.441414 362.454926,105.508698 362.921509,107.518227 
	C366.088654,121.158669 372.511810,133.557007 377.435669,146.524429 
	C378.383636,149.020996 378.529816,151.828186 378.990326,154.501663 
	C379.341919,156.542557 379.874268,158.520203 380.420868,160.521606 
	C383.866547,173.138428 387.217133,185.835388 387.432037,199.001114 
	C387.663879,213.207855 384.671478,227.264236 384.976135,241.500504 
	C384.993835,242.329895 384.845367,243.258072 384.472900,243.986130 
	C379.752563,253.213364 366.820190,259.895966 356.500000,258.500000 
"/>
<path fill="none" opacity="1.000000" stroke="#000000" stroke-linecap="round" stroke-linejoin="round" stroke-width="10.000000"
	d="
M321.000000,117.500000 
	C325.121887,126.163910 327.204559,135.566589 330.648895,144.442215 
	C334.943665,155.509323 336.577179,167.154984 339.375610,178.530594 
	C342.518188,191.304962 344.866638,204.217560 345.800903,217.478806 
	C346.435699,226.489197 347.532043,235.710144 350.385437,244.537033 
	C351.463715,247.872604 353.798218,250.338852 355.022125,253.491409 
	C357.666168,260.302032 352.447327,265.000763 350.378723,270.454010 
	C348.344513,275.816559 343.953308,278.565338 338.006561,279.076477 
	C332.475800,279.551819 327.000000,280.666687 321.500000,281.500000 
"/>
<path fill="none" opacity="1.000000" stroke="#000000" stroke-linecap="round" stroke-linejoin="round" stroke-width="10.000000"
	d="
M245.500000,153.000000 
	C243.952896,156.680222 243.551437,160.507614 243.439133,164.498291 
	C242.908997,183.335464 242.880600,202.231689 241.174103,220.970322 
	C240.414368,229.312714 242.479553,237.331619 241.510361,245.501236 
	C241.274048,247.492966 241.678329,249.726837 240.909973,251.460098 
	C237.854553,258.352417 236.461014,265.510651 236.496704,273.000031 
	C236.501266,273.958740 236.573761,274.822388 235.520798,275.530914 
	C228.154877,280.487335 227.548889,288.367279 227.661728,295.997620 
	C227.764618,302.955475 224.955048,309.248840 224.475540,315.998260 
	C224.355576,317.686737 223.242874,318.972717 221.987000,319.983856 
	C212.821091,327.363770 202.807892,333.470306 191.936874,337.843048 
	C186.422058,340.061279 180.277237,339.630249 174.500000,337.500000 
"/>
<path fill="none" opacity="1.000000" stroke="#000000" stroke-linecap="round" stroke-linejoin="round" stroke-width="8.000000"
	d="
M184.500000,111.500000 
	C186.500000,107.000000 188.470032,102.486359 190.510269,98.004677 
	C191.928513,94.889351 190.841187,91.554771 189.786270,89.091537 
	C187.076324,82.763824 188.894165,78.399261 193.401184,73.900993 
	C196.088501,71.218887 198.134216,67.927536 198.210892,63.503654 
	C198.255585,60.923958 197.892853,58.485222 196.366714,57.152653 
	C194.513077,55.534126 191.670410,56.310246 189.524429,57.542534 
	C186.426346,59.321564 183.258865,60.871914 180.916718,63.936340 
	C176.508347,69.704124 173.492981,69.973427 168.070328,64.924469 
	C164.116486,61.243118 159.920334,58.254204 155.035431,55.925663 
	C147.060257,52.124039 139.476669,51.862656 130.891357,54.667477 
	C125.602646,56.395309 120.078705,57.658531 115.035385,60.073887 
	C109.985367,62.492458 105.511589,65.700981 106.750000,72.500000 
"/>
<path fill="none" opacity="1.000000" stroke="#000000" stroke-linecap="round" stroke-linejoin="round" stroke-width="10.000000"
	d="
M268.500000,146.000000 
	C271.166656,154.000000 273.500092,162.131149 276.583923,169.966965 
	C280.483826,179.876312 281.425964,190.495621 284.611359,200.622253 
	C287.167755,208.749405 289.155548,217.317078 291.844513,225.385178 
	C295.562836,236.541641 296.169373,248.697800 302.431732,259.041321 
	C302.948608,259.895050 302.500000,261.333344 302.500000,262.500000 
"/>
<path fill="none" opacity="1.000000" stroke="#000000" stroke-linecap="round" stroke-linejoin="round" stroke-width="10.000000"
	d="
M425.000000,309.000000 
	C418.259247,319.012329 418.358948,330.682983 416.220795,341.360779 
	C421.566528,344.033478 425.940216,346.487457 430.532288,348.423431 
	C433.664032,349.743774 434.052002,352.687836 434.845978,355.051727 
	C436.069122,358.693542 437.165405,362.494934 437.033447,366.501099 
	C436.872131,371.397766 440.876770,375.125671 441.043579,379.998505 
	C441.083832,381.175201 441.586121,382.363708 442.012878,383.495148 
	C445.179626,391.891449 442.821106,392.500336 437.467041,396.960449 
	C436.224335,397.995667 435.056244,398.862152 434.469727,400.489105 
	C431.101837,409.831360 425.358978,417.477783 417.441864,423.422577 
	C416.580841,424.069153 416.203674,424.705536 416.027985,425.506134 
	C414.511261,432.416962 409.805450,436.968658 404.468781,440.958221 
	C401.892212,442.884369 399.251190,444.609436 398.507690,448.001678 
	C398.052582,450.078278 396.348114,451.173737 394.977905,452.476746 
	C390.704895,456.540192 386.862854,461.420471 381.878052,464.287994 
	C374.056183,468.787659 368.641510,475.902100 361.470886,480.958710 
	C353.428192,486.630371 344.638184,490.478882 334.500916,489.981171 
	C327.231171,489.624207 320.596344,488.039581 315.340576,482.142059 
	C313.506958,480.084473 309.833344,479.666656 307.000000,478.500000 
"/>
<path fill="none" opacity="1.000000" stroke="#000000" stroke-linecap="round" stroke-linejoin="round" stroke-width="11.000000"
	d="
M539.000000,338.500000 
	C537.552307,347.547852 535.353516,356.325745 530.008362,364.005829 
	C528.343079,366.398651 528.374512,369.350067 528.103210,372.010529 
	C526.815430,384.637878 522.835693,396.824982 522.054443,409.503357 
	C521.727051,414.816528 521.479126,420.230042 522.118774,425.485535 
	C523.148560,433.947784 521.715637,441.245758 515.542419,447.541595 
	C507.455780,455.788818 498.196533,461.831360 487.020935,465.072205 
	C480.666260,466.914978 475.222900,465.401611 470.021240,461.967804 
	C468.875458,461.211426 468.397491,460.281433 468.868988,458.465973 
	C469.888763,454.539276 470.843384,450.546661 473.576324,447.570068 
	C476.679565,444.190063 477.913086,440.386292 478.000000,436.000000 
"/>
<path fill="none" opacity="1.000000" stroke="#000000" stroke-linecap="round" stroke-linejoin="round" stroke-width="11.000000"
	d="
M443.500000,302.000000 
	C440.855652,293.873535 442.105774,285.219086 440.090240,276.977936 
	C439.395294,274.136292 441.984833,272.015594 443.582092,270.067291 
	C448.900574,263.579773 451.407471,255.615738 455.437347,248.464691 
	C457.101776,245.511108 454.959930,242.111206 455.569000,239.013565 
	C456.393951,234.818069 455.521057,231.248169 453.612427,227.443604 
	C451.041046,222.317978 452.651581,216.484711 452.164032,210.985458 
	C451.504333,203.543945 452.099396,195.998154 451.959869,188.500748 
	C451.885284,184.494965 452.305756,180.666077 453.974884,176.988602 
	C454.470917,175.895782 455.232391,174.475876 454.913177,173.529282 
	C451.405487,163.127533 453.108368,151.814209 449.423401,141.527435 
	C446.199219,132.526886 446.967041,122.493835 442.000000,114.000000 
	C443.445099,106.161499 437.272949,99.713486 437.984497,91.998573 
	C438.144012,90.268982 436.659241,89.809845 435.525116,88.966225 
	C426.147522,81.990761 421.575836,78.655495 409.499878,78.995880 
	C405.197052,79.117165 403.059540,81.239891 403.553986,85.493721 
	C403.974945,89.114891 404.130402,92.826515 406.450226,96.035980 
	C408.120178,98.346405 407.421692,101.397125 408.115723,103.968765 
	C409.939880,110.727867 411.837555,117.549576 414.626801,123.944695 
	C418.032471,131.753143 419.789032,140.015289 422.438110,148.020477 
	C425.054504,155.926819 427.166687,164.000000 429.500000,172.000000 
"/>
<path fill="none" opacity="1.000000" stroke="#000000" stroke-linecap="round" stroke-linejoin="round" stroke-width="12.000000"
	d="
M314.500000,200.000000 
	C319.642883,206.875244 318.742645,215.313278 319.698364,223.037323 
	C320.564514,230.037277 321.238983,237.318146 318.325348,244.629654 
	C316.686035,248.743301 317.969269,254.213577 318.584503,258.989105 
	C319.528320,266.314789 317.105530,273.841278 320.739227,281.130005 
	C321.904114,283.466675 320.386200,287.471161 319.327393,290.438416 
	C318.841431,291.800262 316.545197,292.578217 314.987488,293.478363 
	C313.377075,294.408997 311.650055,295.135254 310.003082,296.005859 
	C304.898590,298.704193 299.917267,299.872437 294.965881,295.538971 
	C293.349579,294.124359 291.311005,293.200012 289.505493,291.991791 
	C287.104706,290.385132 286.351746,287.718079 287.613373,285.566467 
	C290.604156,280.465759 291.030396,274.997711 290.398682,269.511658 
	C289.588348,262.475250 292.809723,258.636536 299.003357,256.509766 
	C299.226990,256.432953 299.500000,256.500000 299.750000,256.500000 
	C299.666656,256.333344 299.583344,256.166656 299.500000,256.000000 
"/>
<path fill="none" opacity="1.000000" stroke="#000000" stroke-linecap="round" stroke-linejoin="round" stroke-width="12.000000"
	d="
M503.000000,362.500000 
	C500.216400,372.653198 500.025940,383.219818 498.046478,393.508942 
	C496.323273,402.466003 495.110046,411.520569 493.434418,420.487762 
	C492.916382,423.260101 492.543976,426.312866 489.036926,427.600586 
	C487.484528,428.170624 486.438446,429.989716 484.979950,430.970154 
	C480.924957,433.696075 477.179413,436.835724 471.439972,435.212250 
	C469.261597,434.596100 466.361023,435.561401 463.916077,437.387634 
	C458.364349,441.534393 453.057861,445.816559 448.992615,451.494720 
	C446.413025,455.097717 446.935150,458.520966 450.498108,461.002716 
	C456.478577,465.168243 462.589111,464.164246 468.750000,461.500000 
"/>
<path fill="none" opacity="1.000000" stroke="#000000" stroke-linecap="round" stroke-linejoin="round" stroke-width="10.000000"
	d="
M259.500000,223.750000 
	C257.657562,224.326050 256.356354,224.807892 256.392487,227.501450 
	C256.593964,242.506348 255.823151,257.625885 257.798767,272.460205 
	C259.156433,282.654236 260.306885,293.068054 263.500000,303.000000 
"/>
<path fill="none" opacity="1.000000" stroke="#000000" stroke-linecap="round" stroke-linejoin="round" stroke-width="10.000000"
	d="
M287.000000,135.500000 
	C289.731689,139.770767 290.097565,144.863022 291.767212,149.401703 
	C295.513184,159.584610 295.301666,170.705887 300.271149,180.614777 
	C302.281372,184.623108 301.001831,190.028854 302.981018,194.508392 
	C304.052185,196.932892 304.364502,199.774200 307.996857,200.042572 
	C314.618530,200.531830 315.686371,199.802643 315.456146,193.001480 
	C315.113800,182.886185 315.020599,172.761780 311.628265,162.955627 
	C310.338959,159.228683 310.505859,154.999252 309.998840,151.000153 
	C308.937622,142.629776 305.109985,135.065140 303.381378,126.465340 
	C306.457245,122.051010 311.191559,118.599884 317.025726,117.659698 
	C321.678467,116.909897 324.509399,113.821953 327.999237,111.498840 
	C330.902008,109.566513 333.884186,108.033188 337.500000,109.500000 
"/>
<path fill="none" opacity="1.000000" stroke="#000000" stroke-linecap="round" stroke-linejoin="round" stroke-width="11.000000"
	d="
M81.000000,175.000000 
	C75.566277,178.964355 71.619423,183.354706 71.807457,191.004730 
	C72.003563,198.983521 70.560341,206.993225 70.050285,215.003204 
	C69.834465,218.392517 68.843445,221.552963 67.428780,224.465408 
	C63.011387,233.559677 65.421730,242.527908 67.545525,251.489212 
	C68.759956,256.613434 70.122795,261.627106 70.111115,267.000244 
	C70.103249,270.620300 70.949226,274.507263 73.113419,277.415588 
	C75.867088,281.116089 77.096214,285.143097 78.053917,289.488129 
	C79.086548,294.173035 81.326866,298.211639 84.370911,302.101044 
	C88.968803,307.975739 89.791557,315.173126 88.978401,322.497589 
	C88.791565,324.180511 88.474792,325.877136 87.974922,327.492249 
	C86.061577,333.674377 92.391617,336.545288 93.528030,341.493561 
	C93.653809,342.041229 94.141663,342.518951 94.503883,342.997070 
	C97.985298,347.592682 101.251213,352.065369 100.659492,358.514648 
	C100.306328,362.363831 102.550461,365.318176 105.807762,368.216064 
	C110.797592,372.655334 114.854073,378.253113 118.514244,383.990906 
	C121.676018,388.947388 125.225784,393.473938 130.972183,395.818176 
	C132.924026,396.614441 133.771805,402.514801 132.468643,404.983459 
	C131.283585,407.228394 129.933731,409.403290 128.481689,411.487244 
	C123.566536,418.541443 120.489990,418.614075 114.443947,412.555939 
	C111.375061,409.480927 109.206253,405.737732 106.719704,402.339264 
	C103.007484,397.265625 98.725090,393.239227 93.500000,390.000000 
"/>
<path fill="none" opacity="1.000000" stroke="#000000" stroke-linecap="round" stroke-linejoin="round" stroke-width="11.000000"
	d="
M88.000000,334.500000 
	C82.881874,339.219421 81.207245,345.441101 81.081200,352.001556 
	C80.915375,360.632233 79.869698,369.067993 78.115013,377.523865 
	C76.578903,384.926453 76.077065,392.526215 81.500000,399.000000 
"/>
<path fill="none" opacity="1.000000" stroke="#000000" stroke-linecap="round" stroke-linejoin="round" stroke-width="10.000000"
	d="
M361.500000,178.500000 
	C363.066833,190.449997 364.227936,202.466400 363.385315,214.491959 
	C362.754669,223.492294 363.772308,232.576477 361.630676,241.531250 
	C360.811157,244.957855 358.593109,247.215958 357.000000,250.000000 
"/>
<path fill="none" opacity="1.000000" stroke="#000000" stroke-linecap="round" stroke-linejoin="round" stroke-width="8.000000"
	d="
M106.500000,66.000000 
	C100.593842,64.765770 95.834000,61.698193 91.419792,57.586098 
	C87.332451,53.778500 81.318710,55.193913 80.656837,60.021503 
	C80.003036,64.790283 79.824524,69.906441 83.499924,74.000069 
	C88.128967,79.155884 92.054939,84.709877 94.043877,91.487122 
	C94.703697,93.735428 94.955139,95.840958 93.996033,97.998238 
	C92.511070,101.338257 91.221382,104.794807 89.399796,107.942001 
	C88.578735,109.360565 87.956062,111.992043 85.518425,111.421318 
	C82.773636,110.778694 79.834724,110.123154 78.485947,107.006081 
	C76.269897,101.884750 76.788559,96.716988 77.969749,91.493164 
	C78.109108,90.876854 77.833328,90.166664 77.750000,89.500000 
"/>
<path fill="none" opacity="1.000000" stroke="#000000" stroke-linecap="round" stroke-linejoin="round" stroke-width="10.000000"
	d="
M490.500000,250.500000 
	C493.931091,253.367783 495.233643,257.401855 495.909332,261.514893 
	C496.512054,265.183258 493.027618,268.186707 493.491760,272.001007 
	C493.551727,272.493713 493.013458,272.328735 492.523132,272.551056 
	C485.891266,275.557648 482.027771,281.679565 477.000885,286.500916 
	C476.660736,286.827179 476.373260,287.401093 475.994141,287.465698 
	C466.127563,289.147217 459.551971,297.249390 450.500000,300.500000 
"/>
<path fill="none" opacity="1.000000" stroke="#000000" stroke-linecap="round" stroke-linejoin="round" stroke-width="10.000000"
	d="
M423.000000,307.500000 
	C414.748016,303.265472 406.768494,302.476990 397.873627,306.736084 
	C392.768768,309.180389 386.614716,309.772156 380.966858,311.383911 
	C375.507874,312.941772 370.428406,314.941833 366.000000,318.500000 
"/>
<path fill="none" opacity="1.000000" stroke="#000000" stroke-linecap="round" stroke-linejoin="round" stroke-width="10.000000"
	d="
M250.000000,153.000000 
	C255.093231,159.080032 256.040894,166.692551 256.831879,174.018158 
	C257.834595,183.304901 260.031982,192.328064 261.507904,201.498734 
	C262.017334,204.664062 261.727661,207.955276 263.000000,211.000000 
"/>
<path fill="none" opacity="1.000000" stroke="#000000" stroke-linecap="round" stroke-linejoin="round" stroke-width="10.000000"
	d="
M172.000000,297.750000 
	C174.218216,296.674194 175.474350,295.194550 176.153122,292.539154 
	C177.159134,288.603455 178.538361,284.657623 181.464050,281.467041 
	C184.597137,278.050323 185.417709,273.312408 187.823151,269.391510 
	C189.535141,266.600952 189.928146,263.089722 192.359650,260.374329 
	C193.495010,259.106384 193.129150,256.494202 193.447418,254.467789 
	C183.509628,248.381989 180.426941,248.434753 172.036194,256.039948 
	C162.279312,264.883331 150.715500,271.068970 140.031586,278.545135 
	C135.087128,282.005066 129.736328,284.359741 124.000000,286.000000 
"/>
<path fill="none" opacity="1.000000" stroke="#000000" stroke-linecap="round" stroke-linejoin="round" stroke-width="11.000000"
	d="
M370.500000,469.000000 
	C367.350433,462.252441 360.569458,458.986847 355.207153,454.882599 
	C350.162415,451.021484 342.523560,451.480042 336.019653,453.561401 
	C326.293060,456.674133 320.144531,463.652771 316.509552,473.003723 
	C315.612183,475.312164 314.833344,477.666656 314.000000,480.000000 
"/>
<path fill="none" opacity="1.000000" stroke="#000000" stroke-linecap="round" stroke-linejoin="round" stroke-width="11.000000"
	d="
M65.250000,456.500000 
	C63.666668,454.348083 61.943108,456.230591 60.528458,456.606964 
	C57.331520,457.457550 54.505341,459.408478 51.002270,459.554474 
	C47.670391,459.693329 47.578384,463.611572 45.065952,465.110535 
	C39.772430,468.268707 35.258194,472.470947 30.927691,476.929779 
	C26.187174,481.810791 26.407240,487.276825 28.068708,492.979980 
	C29.231037,496.969818 32.891121,498.750732 36.527046,499.330322 
	C39.184811,499.753967 41.613945,500.447327 43.994644,501.511993 
	C50.045700,504.218079 55.517025,501.684875 59.860245,498.319641 
	C65.985229,493.573883 72.500519,491.547882 79.998894,491.429840 
	C81.839653,491.400848 83.898262,490.881989 85.460449,489.934784 
	C92.735138,485.523987 100.938759,482.096863 104.074142,473.025635 
	C104.541084,471.674713 105.790474,470.323456 107.037819,469.561981 
	C111.428734,466.881348 112.367104,462.568115 113.603752,458.028259 
	C116.442818,447.605682 119.888847,437.349823 122.964600,426.989502 
	C123.834824,424.058258 123.901810,421.000000 123.000000,418.000000 
"/>
<path fill="none" opacity="1.000000" stroke="#000000" stroke-linecap="round" stroke-linejoin="round" stroke-width="8.000000"
	d="
M101.000000,351.000000 
	C105.447624,348.373108 108.621414,344.264557 112.358131,340.844971 
	C113.883049,339.449463 113.795624,336.321716 114.510201,334.003143 
	C115.286781,331.483398 116.438820,329.189728 117.943550,326.961884 
	C122.773575,319.810760 128.436264,319.678162 131.830246,327.572968 
	C135.055313,335.074890 139.951523,341.694183 142.562515,349.479034 
	C143.631882,352.667419 145.616592,355.303284 148.968445,356.819763 
	C151.299011,357.874146 153.333344,359.583313 155.500015,361.000000 
"/>
<path fill="none" opacity="1.000000" stroke="#000000" stroke-linecap="round" stroke-linejoin="round" stroke-width="9.000000"
	d="
M439.500000,275.500000 
	C434.704834,276.773743 429.603912,274.565674 425.053558,276.153534 
	C419.689240,278.025421 414.159821,279.453064 408.948273,281.889343 
	C404.950134,283.758392 400.485962,284.776947 396.005066,282.987335 
	C394.695099,282.464142 393.687164,282.396515 392.469177,283.464874 
	C386.010468,289.130402 377.270844,290.030151 370.020264,294.036652 
	C364.268768,297.214752 358.018494,299.564758 353.000000,304.000000 
"/>
<path fill="none" opacity="1.000000" stroke="#000000" stroke-linecap="round" stroke-linejoin="round" stroke-width="10.000000"
	d="
M494.000000,273.500000 
	C499.250977,278.386230 500.747681,284.802856 500.354889,291.491486 
	C500.089722,296.006500 501.569000,299.329590 505.044952,301.425476 
	C516.116089,308.100891 522.508057,319.326782 531.519836,327.979309 
	C534.772705,331.102539 536.419556,335.639069 540.500000,338.000000 
"/>
<path fill="none" opacity="1.000000" stroke="#000000" stroke-linecap="round" stroke-linejoin="round" stroke-width="19.000000"
	d="
M113.500000,341.000000 
	C117.273285,344.420044 120.312538,348.303772 122.575668,352.963257 
	C126.123825,360.268402 129.935104,367.470245 134.067810,374.459900 
	C137.887222,380.919739 146.506989,380.521240 150.495209,373.997070 
	C151.195724,372.851105 152.029755,371.735962 152.469559,370.489258 
	C156.802780,358.206451 164.413666,348.036652 173.039413,338.535797 
	C173.931335,337.553406 174.018539,336.633850 174.008209,335.499939 
	C173.957550,329.933655 175.843109,325.091705 178.916107,320.444519 
	C181.452026,316.609558 183.858292,312.544189 184.941452,307.986084 
	C185.502991,305.622986 185.846558,303.207062 183.049255,301.422760 
	C180.483948,299.786469 178.333328,297.500000 176.000000,295.500000 
"/>
<path fill="none" opacity="1.000000" stroke="#000000" stroke-linecap="round" stroke-linejoin="round" stroke-width="10.000000"
	d="
M436.500000,368.500000 
	C427.268951,371.818237 418.144409,375.312195 408.582428,377.814880 
	C402.866364,379.310974 397.352905,382.320435 391.500000,384.000000 
"/>
<path fill="none" opacity="1.000000" stroke="#000000" stroke-linecap="round" stroke-linejoin="round" stroke-width="10.000000"
	d="
M487.500031,134.000000 
	C487.166687,136.333328 486.426788,138.692215 486.571564,140.995499 
	C487.147064,150.152969 483.761749,158.889786 483.921753,168.001373 
	C483.956696,169.991974 483.085632,172.026169 482.484283,173.995209 
	C480.441986,180.682510 481.668793,187.818283 479.576935,194.524002 
	C479.006470,196.352737 479.558167,198.263794 480.942566,200.044647 
	C485.706787,206.173203 487.783722,213.796417 488.087219,221.017349 
	C488.354828,227.385284 489.305023,233.068207 491.272675,239.074463 
	C493.267090,245.162292 489.839294,249.454620 484.705933,253.746307 
	C475.780914,261.207947 469.329498,271.019348 465.010498,282.004120 
	C463.907288,284.809998 464.435822,287.666656 465.000000,290.500000 
"/>
<path fill="none" opacity="1.000000" stroke="#000000" stroke-linecap="round" stroke-linejoin="round" stroke-width="9.000000"
	d="
M65.000000,455.500000 
	C68.160538,449.601135 73.553169,444.358398 72.386810,437.017975 
	C70.974403,428.129150 75.972168,421.423279 78.827759,413.619537 
	C86.201576,416.661224 92.239487,420.081665 95.720879,427.901672 
	C99.670311,436.773041 107.207062,442.422119 117.000000,444.500000 
"/>
<path fill="none" opacity="1.000000" stroke="#000000" stroke-linecap="round" stroke-linejoin="round" stroke-width="10.000000"
	d="
M651.000000,154.000000 
	C655.459900,153.952377 659.382690,155.182220 660.420044,160.017166 
	C661.679626,165.888092 662.494507,172.046692 656.952393,176.439957 
	C653.805420,178.934601 651.642578,181.690933 649.737061,185.363556 
	C647.297913,190.064468 643.398499,194.311783 637.503296,195.516159 
	C635.746277,195.875107 634.453430,196.754074 633.442200,198.465866 
	C629.752014,204.712311 623.701599,206.422592 617.012024,205.857620 
	C614.986755,205.686600 613.291199,205.756195 611.497559,206.494034 
	C605.910095,208.792435 600.444336,208.738083 595.533875,204.956009 
	C592.207092,202.393692 588.287048,201.623459 584.500977,201.647873 
	C578.328064,201.687683 574.986755,198.134659 572.582153,193.457748 
	C569.936035,188.311005 566.042358,185.427811 560.525635,183.907089 
	C555.302429,182.467285 550.624878,179.908600 548.962646,174.010529 
	C548.659424,172.934708 547.655640,172.408112 546.523193,171.943497 
	C543.348267,170.640945 541.052490,168.026703 539.102539,165.423218 
	C536.904724,162.488937 535.776306,159.007599 539.491882,155.989990 
	C542.095215,153.875626 543.334839,150.720306 544.900574,147.943909 
	C548.717957,141.174713 546.928284,136.287766 539.449402,133.119461 
	C537.003418,132.083267 535.790833,130.715607 534.353210,128.599731 
	C531.546570,124.468941 527.206177,122.334312 522.000000,122.500000 
"/>
<path fill="none" opacity="1.000000" stroke="#000000" stroke-linecap="round" stroke-linejoin="round" stroke-width="10.000000"
	d="
M500.000000,297.000000 
	C489.880035,296.442657 486.220917,304.341492 481.462738,310.973267 
	C476.527588,317.851654 472.559540,325.441956 466.500000,331.500000 
"/>
<path fill="none" opacity="1.000000" stroke="#000000" stroke-linecap="round" stroke-linejoin="round" stroke-width="10.000000"
	d="
M71.000000,431.000000 
	C60.278908,431.449097 51.404419,436.048248 44.083912,443.581543 
	C41.927876,445.800323 41.742844,449.117371 43.526943,451.983215 
	C45.235432,454.727600 47.166672,457.333344 49.000004,460.000000 
"/>
<path fill="none" opacity="1.000000" stroke="#000000" stroke-linecap="round" stroke-linejoin="round" stroke-width="12.000000"
	d="
M478.500000,103.500000 
	C478.099640,112.405304 480.577911,120.768333 483.574463,128.972794 
	C484.559326,131.669189 486.452026,133.296951 489.980042,133.682556 
	C496.217926,134.364334 502.467529,135.747253 508.448517,137.660889 
	C511.909576,138.768295 513.503479,136.988708 514.361084,134.941788 
	C515.884644,131.305191 518.450317,128.401917 520.356995,125.061066 
	C521.636353,122.819328 521.526184,121.221016 519.988281,119.510551 
	C517.039917,116.231316 513.801392,113.302162 509.003235,113.560120 
	C507.401794,113.646210 506.106018,113.106415 505.560333,111.971001 
	C501.481506,103.484039 491.081451,99.624199 481.506744,102.522278 
	C479.118622,103.245125 477.425842,102.455299 475.444733,101.079613 
	C471.692017,98.473808 467.532898,96.155418 464.173737,93.295898 
	C456.730652,86.959930 449.049072,88.535988 441.004028,90.516304 
	C440.140930,90.728752 439.333344,91.166664 438.500000,91.500000 
"/>
<path fill="none" opacity="1.000000" stroke="#000000" stroke-linecap="round" stroke-linejoin="round" stroke-width="11.000000"
	d="
M202.000000,144.000000 
	C204.219986,147.891403 208.580597,149.377579 211.534332,152.467178 
	C212.940796,153.938324 213.991882,155.249359 214.084473,157.496521 
	C214.236649,161.190475 215.804459,164.660126 218.087158,167.428131 
	C221.046112,171.016205 221.272751,175.224686 220.288300,178.943970 
	C219.030014,183.697800 220.284195,187.649475 221.393539,192.026978 
	C223.337128,199.696442 223.718765,207.432220 218.995193,214.496780 
	C218.866684,214.688965 218.504456,214.854797 218.523254,214.996918 
	C219.488831,222.297302 214.733109,227.999054 213.193268,234.545456 
	C212.057251,239.374985 208.549667,243.086304 208.000000,248.000000 
"/>
<path fill="none" opacity="1.000000" stroke="#000000" stroke-linecap="round" stroke-linejoin="round" stroke-width="10.000000"
	d="
M391.500000,394.500000 
	C399.865479,398.264008 408.554199,395.827209 416.983612,395.257355 
	C423.463867,394.819275 429.149506,395.419128 434.500000,399.000000 
"/>
<path fill="none" opacity="1.000000" stroke="#000000" stroke-linecap="round" stroke-linejoin="round" stroke-width="11.000000"
	d="
M437.000000,307.500000 
	C437.298615,317.331085 436.847137,327.162201 437.279388,337.009674 
	C437.465576,341.251373 435.696228,345.763977 433.000000,349.500000 
"/>
<path fill="none" opacity="1.000000" stroke="#000000" stroke-linecap="round" stroke-linejoin="round" stroke-width="10.000000"
	d="
M208.500000,266.000000 
	C208.454712,271.642181 204.356003,275.689972 202.154663,280.336395 
	C199.321304,286.316833 196.986786,292.846649 192.468750,297.972443 
	C190.503784,300.201813 188.826294,302.930450 185.500000,303.500000 
"/>
<path fill="none" opacity="1.000000" stroke="#000000" stroke-linecap="round" stroke-linejoin="round" stroke-width="10.000000"
	d="
M346.500000,278.000000 
	C350.407684,283.862091 354.645782,284.682617 361.029022,281.559326 
	C368.635162,277.837769 375.571564,273.000885 382.988037,268.977966 
	C385.204865,267.775513 387.383606,266.675995 390.000000,267.000000 
"/>
<path fill="none" opacity="1.000000" stroke="#000000" stroke-linecap="round" stroke-linejoin="round" stroke-width="12.000000"
	d="
M420.000000,315.500000 
	C412.141998,315.530151 406.254608,320.228699 400.012695,324.020905 
	C393.879974,327.746765 388.311035,332.372192 381.526703,335.067230 
	C378.854065,336.128906 377.653412,344.119629 380.111084,347.417206 
	C383.545898,352.025909 383.642670,357.982483 387.009583,362.492859 
	C388.083099,363.930939 387.487823,365.517944 387.452576,366.998871 
	C387.333069,372.020874 388.618286,376.705872 389.812775,381.546204 
	C391.324768,387.673401 391.874786,394.290710 387.933411,399.953644 
	C385.339874,403.679962 383.460358,407.361938 384.505096,411.998840 
	C384.933929,413.902191 383.491333,414.774994 382.552765,416.039185 
	C381.180939,417.886841 379.666443,419.864349 379.081238,422.022034 
	C375.308075,435.934875 365.147614,444.944061 355.000000,454.000000 
"/>
<path fill="none" opacity="1.000000" stroke="#000000" stroke-linecap="round" stroke-linejoin="round" stroke-width="10.000000"
	d="
M300.500000,299.500000 
	C298.090942,306.478821 292.958069,310.544373 285.974304,311.863983 
	C282.593628,312.502747 279.428040,313.226166 276.493011,314.988373 
	C275.537354,315.562225 274.529694,316.359497 273.495453,316.444946 
	C261.843170,317.407776 251.626175,323.253113 240.524139,326.094330 
	C236.850479,327.034485 233.687088,326.099304 230.530365,324.918823 
	C228.045853,323.989716 225.833328,322.333344 223.500000,321.000000 
"/>
<path fill="none" opacity="1.000000" stroke="#000000" stroke-linecap="round" stroke-linejoin="round" stroke-width="10.000000"
	d="
M648.000000,150.500000 
	C643.514526,145.623611 640.728455,140.508743 643.355225,133.446136 
	C644.606262,130.082520 644.317993,126.146416 644.718933,122.542030 
	C650.438477,121.686699 658.088562,125.511719 661.000061,130.499969 
	C665.610107,138.398514 664.569397,146.897079 658.000000,155.000000 
"/>
<path fill="none" opacity="1.000000" stroke="#000000" stroke-linecap="round" stroke-linejoin="round" stroke-width="10.000000"
	d="
M429.750000,195.500000 
	C430.705231,200.209900 427.323425,203.406921 425.383148,206.935745 
	C422.469482,212.234756 419.267731,217.384293 417.040710,223.016098 
	C415.140656,227.820908 412.723999,231.849838 407.000000,232.500000 
"/>
<path fill="none" opacity="1.000000" stroke="#000000" stroke-linecap="round" stroke-linejoin="round" stroke-width="10.000000"
	d="
M273.500000,244.500000 
	C273.729462,254.252136 275.782898,263.640503 278.301971,273.053009 
	C279.583740,277.842346 280.309021,282.367340 285.000000,285.000000 
"/>
<path fill="none" opacity="1.000000" stroke="#000000" stroke-linecap="round" stroke-linejoin="round" stroke-width="11.000000"
	d="
M149.500000,197.500000 
	C145.611557,195.828018 141.636780,196.053497 137.491623,196.399673 
	C131.190308,196.925888 124.836021,195.299744 118.497810,196.488312 
	C117.179573,196.735519 115.833336,196.833344 114.500000,197.000015 
"/>
<path fill="none" opacity="1.000000" stroke="#000000" stroke-linecap="round" stroke-linejoin="round" stroke-width="10.000000"
	d="
M487.000000,230.000000 
	C483.779114,229.780106 481.808563,231.682968 479.987518,233.990143 
	C474.003052,241.572021 466.975189,247.173660 456.500000,246.000000 
"/>
<path fill="none" opacity="1.000000" stroke="#000000" stroke-linecap="round" stroke-linejoin="round" stroke-width="15.000000"
	d="
M108.000000,176.500000 
	C114.110115,173.712723 121.141235,176.770523 126.892639,174.254578 
	C133.309753,171.447433 138.474869,172.120880 144.618790,174.719086 
	C147.810577,176.068878 152.209625,176.281784 156.091827,173.634674 
	C159.708481,171.168594 164.227875,171.515030 168.500000,172.500000 
"/>
<path fill="none" opacity="1.000000" stroke="#000000" stroke-linecap="round" stroke-linejoin="round" stroke-width="12.000000"
	d="
M236.500000,276.000000 
	C241.262482,280.127289 241.882996,285.800659 241.919937,291.500519 
	C241.943054,295.068268 242.410416,298.548157 243.056107,301.989471 
	C244.226425,308.226746 254.447266,311.546661 258.890167,306.895111 
	C261.758820,303.891754 264.740295,303.154541 268.501495,303.482971 
	C275.559448,304.099274 280.005402,299.182465 284.974396,295.465790 
	C286.228668,294.527618 287.166656,293.166656 288.250000,292.000000 
"/>
<path fill="none" opacity="1.000000" stroke="#000000" stroke-linecap="round" stroke-linejoin="round" stroke-width="11.000000"
	d="
M473.000000,202.500000 
	C469.066437,206.337997 467.522400,211.185791 466.988373,216.498825 
	C466.390106,222.450562 464.193115,227.560562 459.000000,231.000000 
"/>
<path fill="none" opacity="1.000000" stroke="#000000" stroke-linecap="round" stroke-linejoin="round" stroke-width="10.000000"
	d="
M87.000000,112.000000 
	C90.587379,120.047577 93.941643,128.221085 100.484154,134.516464 
	C103.047432,136.982941 105.642609,139.214783 109.500000,139.000000 
"/>
<path fill="none" opacity="1.000000" stroke="#000000" stroke-linecap="round" stroke-linejoin="round" stroke-width="10.000000"
	d="
M190.500000,140.500000 
	C201.804398,143.061401 204.633209,141.677750 209.417450,130.464783 
	C210.525604,127.867561 213.680267,124.884178 212.304321,122.618858 
	C206.631546,113.279350 204.994583,100.377884 191.500000,97.500000 
"/>
<path fill="none" opacity="1.000000" stroke="#000000" stroke-linecap="round" stroke-linejoin="round" stroke-width="20.000000"
	d="
M82.000000,174.000000 
	C84.988136,172.802826 88.204475,172.090286 91.181648,170.992722 
	C94.982132,169.591629 99.887215,172.381531 104.018852,174.462585 
	C106.809242,175.868057 107.905556,177.982330 108.036407,180.998413 
	C108.231308,185.490540 109.697372,189.645782 112.002075,193.498764 
	C114.865364,198.285538 115.113060,203.738342 115.380150,209.006073 
	C115.697830,215.271576 118.775696,220.102570 122.012642,224.991638 
	C123.219742,226.814850 124.731995,227.145065 127.020943,226.585709 
	C134.996918,224.636536 141.161423,219.815933 146.958130,214.454727 
	C150.338455,211.328354 153.430023,208.346939 158.490158,207.890823 
	C165.043564,207.300110 168.106049,201.342224 172.407242,197.398819 
	C173.071396,196.789902 172.500000,194.833328 172.500000,193.500000 
"/>
<path fill="none" opacity="1.000000" stroke="#000000" stroke-linecap="round" stroke-linejoin="round" stroke-width="11.000000"
	d="
M416.500000,342.500000 
	C408.793976,346.740143 403.688477,354.129883 396.505219,359.007660 
	C393.874969,360.793732 391.203796,362.453888 388.000000,363.000000 
"/>
<path fill="none" opacity="1.000000" stroke="#000000" stroke-linecap="round" stroke-linejoin="round" stroke-width="12.000000"
	d="
M230.000000,141.500000 
	C227.765717,145.386475 227.224243,149.587112 227.477890,154.001266 
	C227.861389,160.675049 225.432495,166.299179 220.750000,171.000000 
"/>
<path fill="none" opacity="1.000000" stroke="#000000" stroke-linecap="round" stroke-linejoin="round" stroke-width="10.000000"
	d="
M185.000000,144.000000 
	C184.341873,149.368622 182.618378,154.094955 178.044830,157.559189 
	C175.565079,159.437485 173.620132,161.850357 172.435974,164.975739 
	C168.123856,176.356873 161.637756,186.337952 152.507767,194.508682 
	C150.692596,196.133163 149.703903,197.829758 150.905914,200.541702 
	C152.002228,203.015167 153.101822,205.641220 153.000000,208.500000 
"/>
<path fill="none" opacity="1.000000" stroke="#000000" stroke-linecap="round" stroke-linejoin="round" stroke-width="10.000000"
	d="
M548.000000,141.500000 
	C553.845764,142.457291 558.511719,144.942307 560.516541,150.994507 
	C561.058838,152.631592 562.192566,153.881317 564.001831,153.953461 
	C565.334412,154.006607 566.077209,154.906265 566.981628,155.526764 
	C572.390442,159.237488 572.214661,159.747589 570.092529,166.031250 
	C568.002014,172.221436 566.666687,178.666672 565.000061,185.000015 
"/>
<path fill="none" opacity="1.000000" stroke="#000000" stroke-linecap="round" stroke-linejoin="round" stroke-width="11.000000"
	d="
M186.000000,113.500000 
	C188.903412,116.434280 192.326981,119.144325 192.938187,123.508659 
	C193.743027,129.255859 191.180801,134.590927 189.712006,139.920624 
	C189.075577,142.229965 185.777893,144.607864 181.963760,142.567749 
	C178.574936,140.755127 174.694611,141.521637 170.999985,141.502304 
	C169.510254,141.494507 168.355927,142.057556 167.750000,143.500000 
"/>
<path fill="none" opacity="1.000000" stroke="#000000" stroke-linecap="round" stroke-linejoin="round" stroke-width="11.000000"
	d="
M579.500000,72.500000 
	C580.553833,77.832184 581.156494,83.366661 586.000000,87.000008 
	C586.666626,87.500076 587.387878,88.492310 587.991699,88.425369 
	C595.706360,87.570206 601.453003,93.232086 608.500793,94.495720 
	C610.113953,94.784958 611.477356,94.248222 612.491150,92.992836 
	C614.732239,90.217651 617.315613,87.702110 618.845032,84.060211 
	C618.348267,82.742523 617.927795,80.917091 616.520142,79.480240 
	C613.337769,76.231834 608.993469,75.733864 605.215515,74.023834 
	C601.942810,72.542488 599.911316,67.801605 595.515869,66.448372 
	C591.378540,65.174583 587.226685,66.953484 584.714905,68.793350 
	C579.399414,72.686852 573.950439,71.124596 568.500000,71.500000 
"/>
<path fill="none" opacity="1.000000" stroke="#000000" stroke-linecap="round" stroke-linejoin="round" stroke-width="10.000000"
	d="
M619.500000,84.500000 
	C625.255371,86.486107 629.763855,89.995064 632.427063,95.535049 
	C632.844727,96.403847 633.003479,97.019066 633.973206,97.549019 
	C643.446838,102.726753 647.501221,110.808403 646.500000,121.500000 
"/>
<path fill="none" opacity="1.000000" stroke="#000000" stroke-linecap="round" stroke-linejoin="round" stroke-width="10.000000"
	d="
M632.500000,97.500000 
	C631.333313,98.500000 630.160706,99.493088 629.001038,100.501183 
	C623.528198,105.258835 623.470093,106.639893 627.460266,112.526924 
	C630.555481,117.093590 635.329651,118.907707 640.000305,120.999359 
	C641.498413,121.670242 643.000000,122.333321 644.500000,122.999985 
"/>
<path fill="none" opacity="1.000000" stroke="#000000" stroke-linecap="round" stroke-linejoin="round" stroke-width="11.000000"
	d="
M101.500000,366.000000 
	C97.823402,369.578369 95.367104,374.168427 95.199684,379.006897 
	C94.940437,386.499084 92.069199,392.302826 85.916191,395.854828 
	C80.216187,399.145264 80.197845,404.305603 79.525398,409.503296 
	C79.355743,410.814667 79.500000,412.166656 79.500000,413.500000 
"/>
<path fill="none" opacity="1.000000" stroke="#000000" stroke-linecap="round" stroke-linejoin="round" stroke-width="9.000000"
	d="
M385.000000,414.000000 
	C392.696960,415.706573 400.130737,418.625885 408.008942,419.410156 
	C411.389130,419.746643 413.188110,422.457092 416.000000,423.500000 
"/>
<path fill="none" opacity="1.000000" stroke="#000000" stroke-linecap="round" stroke-linejoin="round" stroke-width="10.000000"
	d="
M446.000000,315.500000 
	C450.317841,318.848816 452.798859,324.105927 457.528778,326.952179 
	C462.816040,330.133820 467.213654,334.054108 471.124817,338.899261 
	C475.147919,343.883087 479.898438,348.415741 486.990173,349.101654 
	C488.060760,349.205231 489.242676,350.498108 489.958557,351.528778 
	C493.288055,356.322510 499.172943,357.862152 503.058624,361.944183 
	C503.454773,362.360352 504.666656,362.000000 505.500000,362.000000 
"/>
<path fill="none" opacity="1.000000" stroke="#000000" stroke-linecap="round" stroke-linejoin="round" stroke-width="11.000000"
	d="
M512.500000,324.750000 
	C501.318817,329.915222 495.351776,340.136566 488.500000,349.500000 
"/>
<path fill="none" opacity="1.000000" stroke="#000000" stroke-linecap="round" stroke-linejoin="round" stroke-width="11.000000"
	d="
M403.000000,81.500000 
	C395.269379,76.570435 389.974976,81.927589 384.552582,86.068840 
	C382.658325,87.515533 380.850098,88.255104 378.509155,88.568359 
	C370.972351,89.576920 364.948822,93.295021 360.500000,99.500000 
"/>
<path fill="none" opacity="1.000000" stroke="#000000" stroke-linecap="round" stroke-linejoin="round" stroke-width="12.000000"
	d="
M320.000000,291.000000 
	C324.970398,294.156189 330.245575,295.257233 336.003784,293.512482 
	C339.867523,292.341675 342.848297,292.904938 345.092621,296.948578 
	C347.975739,302.143005 354.508667,304.624146 356.000000,311.000000 
	C365.359802,316.724579 369.046387,327.519531 377.005493,334.493744 
	C377.630432,335.041321 378.333344,335.500000 379.000000,336.000000 
"/>
<path fill="none" opacity="1.000000" stroke="#000000" stroke-linecap="round" stroke-linejoin="round" stroke-width="6.000000"
	d="
M476.500000,182.000000 
	C470.951904,180.985336 465.988129,178.453262 461.007568,175.984711 
	C459.238098,175.107681 457.609375,173.907578 455.500000,174.000000 
"/>
<path fill="none" opacity="1.000000" stroke="#000000" stroke-linecap="round" stroke-linejoin="round" stroke-width="11.000000"
	d="
M302.500000,127.000000 
	C296.635193,125.483330 292.459229,129.230255 289.227692,132.711365 
	C286.556793,135.588455 283.002197,136.220963 280.440796,136.603531 
	C275.351196,137.363739 273.073792,141.180634 269.522034,143.533279 
	C268.867584,143.966766 268.570282,145.341736 267.989227,145.422058 
	C261.546478,146.312851 256.125122,149.584854 250.420013,152.334000 
	C248.480728,153.268478 245.693970,153.057922 243.883530,150.070587 
	C241.135483,145.536133 237.388718,141.954071 231.509720,141.397324 
	C229.615295,141.217926 228.545517,139.308258 227.399612,137.566025 
	C223.655106,131.872833 218.907852,127.053772 213.000000,123.500000 
"/>
<path fill="none" opacity="1.000000" stroke="#000000" stroke-linecap="round" stroke-linejoin="round" stroke-width="10.000000"
	d="
M572.500000,161.000015 
	C574.500000,161.500015 576.798096,161.531479 578.448242,162.581345 
	C585.491150,167.062241 586.074707,171.704407 581.023254,178.517242 
	C577.996277,182.599701 574.420532,185.995926 570.000000,188.500000 
"/>
<path fill="none" opacity="1.000000" stroke="#000000" stroke-linecap="round" stroke-linejoin="round" stroke-width="10.000000"
	d="
M134.000000,150.000000 
	C134.500000,156.833328 135.000000,163.666672 135.500000,170.500000 
"/>
<path fill="none" opacity="1.000000" stroke="#000000" stroke-linecap="round" stroke-linejoin="round" stroke-width="10.000000"
	d="
M600.000000,181.500000 
	C596.761353,188.165283 592.026611,194.210220 591.500000,202.000000 
"/>
<path fill="none" opacity="1.000000" stroke="#000000" stroke-linecap="round" stroke-linejoin="round" stroke-width="11.000000"
	d="
M137.500000,300.500000 
	C131.655518,300.741425 127.291817,305.058258 125.520340,312.504852 
	C124.893166,315.141235 124.500008,317.833344 124.000008,320.500000 
"/>
<path fill="none" opacity="1.000000" stroke="#000000" stroke-linecap="round" stroke-linejoin="round" stroke-width="13.000000"
	d="
M650.000000,155.000000 
	C645.136780,159.045731 641.722961,164.101944 639.494690,169.997986 
	C638.353088,173.018494 635.255920,173.772400 632.999451,175.499298 
	C630.608521,177.329117 627.573547,178.193634 625.356262,180.660034 
	C627.571289,185.931839 630.183167,191.057327 634.000000,195.500000 
"/>
<path fill="none" opacity="1.000000" stroke="#000000" stroke-linecap="round" stroke-linejoin="round" stroke-width="10.000000"
	d="
M561.000000,154.500000 
	C557.670654,157.792480 554.564087,161.200363 553.473572,165.993988 
	C552.820984,168.862823 549.722473,169.991638 548.500000,172.500000 
"/>
<path fill="none" opacity="1.000000" stroke="#000000" stroke-linecap="round" stroke-linejoin="round" stroke-width="10.000000"
	d="
M183.500000,112.000000 
	C177.833344,116.333336 172.176407,120.679504 166.493546,124.991501 
	C164.963303,126.152603 163.151505,125.181755 161.500000,125.500000 
"/>
<path fill="none" opacity="1.000000" stroke="#000000" stroke-linecap="round" stroke-linejoin="round" stroke-width="11.000000"
	d="
M119.000000,91.500000 
	C123.438957,91.887825 126.085052,88.028122 129.940292,86.810898 
	C132.970032,85.854317 135.455475,83.481621 137.712112,80.670258 
	C140.430145,77.284096 139.106934,75.259132 137.544022,72.475281 
	C135.808105,69.383278 133.707321,69.858978 130.972351,70.929375 
	C128.028931,72.081352 124.568344,72.117943 122.515602,75.011070 
	C120.546638,77.786118 118.613228,80.495491 121.420761,84.062370 
	C122.566811,85.518372 122.833328,87.666664 123.500000,89.500000 
"/>
<path fill="none" opacity="1.000000" stroke="#000000" stroke-linecap="round" stroke-linejoin="round" stroke-width="8.000000"
	d="
M153.500000,68.500000 
	C150.318130,68.311043 147.265228,67.213860 143.996033,67.443443 
	C141.066742,67.649178 138.606750,68.380180 137.000000,71.000000 
"/>
<path fill="none" opacity="1.000000" stroke="#000000" stroke-linecap="round" stroke-linejoin="round" stroke-width="9.000000"
	d="
M171.500000,86.500000 
	C171.144287,91.342659 176.009338,93.969490 176.544037,98.494797 
	C176.952972,101.955750 178.243408,105.128296 181.000000,107.500000 
"/>
<path fill="none" opacity="1.000000" stroke="#000000" stroke-linecap="round" stroke-linejoin="round" stroke-width="19.000000"
	d="
M67.500000,133.500000 
	C65.438828,136.867081 67.801781,138.833542 70.051994,140.426559 
	C71.966904,141.782181 74.247597,142.855408 76.523079,143.404327 
	C79.011322,144.004532 81.030556,145.151474 81.419022,147.513321 
	C82.719315,155.419083 89.162003,160.898407 91.005585,168.498642 
	C91.129395,169.009033 91.333336,169.500000 91.500000,170.000000 
"/>
<path fill="none" opacity="1.000000" stroke="#000000" stroke-linecap="round" stroke-linejoin="round" stroke-width="7.000000"
	d="
M186.500000,156.000000 
	C189.880463,160.619537 193.172256,165.336151 198.506546,167.986847 
	C199.664841,168.562408 199.480408,169.541168 199.500000,170.500000 
"/>
<path fill="none" opacity="1.000000" stroke="#000000" stroke-linecap="round" stroke-linejoin="round" stroke-width="11.000000"
	d="
M585.500000,171.500000 
	C591.605164,171.110672 595.808350,174.202835 598.960754,179.025665 
	C599.656250,180.089676 600.452026,181.699097 601.466248,181.389511 
	C605.459045,180.170822 608.722412,181.975861 611.963013,183.574921 
	C613.833618,184.497986 615.193359,183.533890 616.459412,182.916702 
	C619.203064,181.579254 621.951172,180.750900 625.000000,181.000000 
"/>
<path fill="none" opacity="1.000000" stroke="#000000" stroke-linecap="round" stroke-linejoin="round" stroke-width="10.000000"
	d="
M161.500000,76.500000 
	C160.839737,83.920624 154.874084,88.077980 150.939255,93.455551 
	C149.440445,95.503922 146.775543,94.971779 144.500000,95.000000 
"/>
<path fill="none" opacity="1.000000" stroke="#000000" stroke-linecap="round" stroke-linejoin="round" stroke-width="10.000000"
	d="
M376.000000,433.500000 
	C380.721802,435.876526 385.318665,438.115631 391.012848,437.660950 
	C394.928040,437.348358 397.368591,440.947113 400.000000,443.500000 
"/>
<path fill="none" opacity="1.000000" stroke="#000000" stroke-linecap="round" stroke-linejoin="round" stroke-width="10.000000"
	d="
M512.000000,138.500000 
	C512.833313,139.833328 513.392334,141.507828 514.549561,142.438400 
	C518.631470,145.720840 522.260620,149.337906 525.626221,153.395279 
	C528.329346,156.653961 532.211243,158.886124 536.500000,160.000000 
"/>
<path fill="none" opacity="1.000000" stroke="#000000" stroke-linecap="round" stroke-linejoin="round" stroke-width="5.000000"
	d="
M400.000000,244.500000 
	C395.335632,242.683395 390.592133,241.249161 385.500000,241.500000 
"/>
<path fill="none" opacity="1.000000" stroke="#000000" stroke-linecap="round" stroke-linejoin="round" stroke-width="9.000000"
	d="
M83.000000,116.000000 
	C79.521584,121.455467 77.634048,126.932930 80.340889,133.564941 
	C81.669571,136.820328 79.821251,140.545898 79.000000,144.000000 
"/>
<path fill="none" opacity="1.000000" stroke="#000000" stroke-linecap="round" stroke-linejoin="round" stroke-width="5.000000"
	d="
M140.000000,79.000000 
	C144.292099,81.227997 149.814728,80.133583 153.500000,84.000000 
"/>
<path fill="none" opacity="1.000000" stroke="#000000" stroke-linecap="round" stroke-linejoin="round" stroke-width="3.000000"
	d="
M63.500000,235.500000 
	C59.006702,234.613632 54.926624,237.308517 50.500000,237.000000 
"/>
<path fill="none" opacity="1.000000" stroke="#000000" stroke-linecap="round" stroke-linejoin="round" stroke-width="10.000000"
	d="
M145.500000,142.500000 
	C144.500000,143.000000 143.147095,143.239319 142.555115,144.040710 
	C137.200134,151.290222 130.709152,148.602951 124.568581,145.847183 
	C122.485588,144.912399 120.683571,144.265717 118.500000,144.500000 
"/>
<path fill="none" opacity="1.000000" stroke="#000000" stroke-linecap="round" stroke-linejoin="round" stroke-width="3.000000"
	d="
M59.000000,481.500000 
	C59.616474,484.525085 60.698872,487.317230 63.000000,489.500000 
"/>
<path fill="none" opacity="1.000000" stroke="#000000" stroke-linecap="round" stroke-linejoin="round" stroke-width="3.000000"
	d="
M316.000000,244.000000 
	C313.976227,242.737930 311.717224,243.004715 309.500000,243.000000 
"/>
<path fill="none" opacity="1.000000" stroke="#000000" stroke-linecap="round" stroke-linejoin="round" stroke-width="3.000000"
	d="
M496.500000,188.500000 
	C494.333344,188.333328 492.166656,188.166656 490.000000,188.000000 
"/>
</svg>